# xmcd
#
# Track frame offsets: 
#        150
#        16287
#        35920
#        46160
#        55750
#        70422
#        83452
#        98665
#        111627
#        125005
#        139925
#        151252
#        166440
#        183342
#        187732
#        215540
#        238962
#        263852
#        278015
#
# Disc length: 3855 seconds
#
# Revision: 14
# Processed by: cddbd v1.5.2PL0 Copyright (c) Steve Scherf et al.
# Submitted via: ExactAudioCopyFreeDBPlugin 1.0
#
DISCID=0f0f0d13
DTITLE=Fleetwood Mac - Blue Horizon Box Disc 1 Peter Green's Fleetwood
DTITLE=Mac
DYEAR=1999
DGENRE=Blues
TTITLE0=My Heart Beats Like a Hammer (Take 2)
TTITLE1=Merry Go Round (Take 2)
TTITLE2=Long Grey Mare
TTITLE3=Hellhound On My Trail (Take 1)
TTITLE4=Shake Your Moneymaker
TTITLE5=Looking for Somebody
TTITLE6=No Place to Go
TTITLE7=My Baby's Good to Me
TTITLE8=I Loved Another Woman
TTITLE9=Cold Black Night
TTITLE10=The World Keep On Turning
TTITLE11=Got to Move
TTITLE12=My Heart Beat Like a Hammer (Take 1)
TTITLE13=Merry Go Round (Take 1)
TTITLE14=I Loved Another Woman (Take 1, Take 2, Take 3, Take 4)
TTITLE15=I Loved Another Woman (Take 5, Take 6)
TTITLE16=Cold Black Night
TTITLE17=You're So Evil
TTITLE18=I'm Coming Home
EXTD=
EXTT0=
EXTT1=
EXTT2=
EXTT3=
EXTT4=
EXTT5=
EXTT6=
EXTT7=
EXTT8=
EXTT9=
EXTT10=
EXTT11=
EXTT12=
EXTT13=
EXTT14=
EXTT15=
EXTT16=
EXTT17=
EXTT18=
PLAYORDER=
